# xmcd
#
# Track frame offsets:
# 150
# 22880
# 46007
# 65601
# 85778
#
# Disc length: 1412 seconds
#
# Revision: 0
# Processed by: cddbd v1.4PL0 Copyright (c) Steve Scherf et al.
# Submitted via: Audion 2.5.0 (http://www.panic.com/audion/)
#
DISCID=30058205
DTITLE=somnio - somnio
DYEAR=1900
DGENRE=
TTITLE0=aa
TTITLE1=a
TTITLE2=a
TTITLE3=a
TTITLE4=a
EXTD=
EXTT0=
EXTT1=
EXTT2=
EXTT3=
EXTT4=
PLAYORDER=
